<svg xmlns="http://www.w3.org/2000/svg" width="16.031" height="16.031" viewBox="0 0 16.031 16.031"><defs><style>.cls-1{fill:#ffb100;fill-rule:evenodd}</style></defs><path id="dates" class="cls-1" d="M372.988 80.962H385a2.008 2.008 0 0 1 2.008 2.008v11.012A2.008 2.008 0 0 1 385 95.989h-12.012a2.008 2.008 0 0 1-2.008-2.007V82.97a2.008 2.008 0 0 1 2.008-2.008zM384 81v1.5a1.527 1.527 0 0 1-1.531 1.5 1.5 1.5 0 0 1-1.5-1.5V81H384zm-7 0v1.5a1.527 1.527 0 0 1-1.531 1.5 1.5 1.5 0 0 1-1.5-1.5V81H377zm-2-1.031h1v2.968h-1v-2.969zm7 0h1v2.968h-1v-2.969zM371.987 95.03V84.967h14.062V95.03h-14.062zm3.992-2.074v-3.98h-1.011v-.785a.286.286 0 0 0 .188-.047 1.39 1.39 0 0 0 .488-.195 1.266 1.266 0 0 0 .367-.37 1.385 1.385 0 0 0 .2-.569H377v5.945h-1.024zM380.455 88l-.22 1.35.015.017a1.386 1.386 0 0 1 .489-.351 1.529 1.529 0 0 1 .59-.107 1.554 1.554 0 0 1 .724.162 1.618 1.618 0 0 1 .532.432 1.935 1.935 0 0 1 .33.642 2.648 2.648 0 0 1 .114.785 2.2 2.2 0 0 1-.61 1.537 1.93 1.93 0 0 1-.649.445 1.868 1.868 0 0 1-.787.149 2.59 2.59 0 0 1-.768-.113 1.885 1.885 0 0 1-.649-.353 1.743 1.743 0 0 1-.453-.59 1.944 1.944 0 0 1-.177-.819h1.118a1.018 1.018 0 0 0 .283.649.844.844 0 0 0 .622.242.8.8 0 0 0 .4-.1.952.952 0 0 0 .3-.254 1.172 1.172 0 0 0 .19-.365 1.415 1.415 0 0 0 .067-.429 1.45 1.45 0 0 0-.063-.433 1.035 1.035 0 0 0-.19-.357.878.878 0 0 0-.3-.238.9.9 0 0 0-.4-.085.926.926 0 0 0-.488.114 1.179 1.179 0 0 0-.354.361h-1.008l.543-3.287h3.078V88h-2.275z" transform="translate(-370.969 -79.969)"/></svg>