<svg xmlns="http://www.w3.org/2000/svg" width="40.063" height="48" viewBox="0 0 40.063 48"><defs><style>.cls-1{fill:#7f8890;fill-rule:evenodd}</style></defs><path id="icon-3" class="cls-1" d="M980 1433.36c-.024-1.3-.047-2.52-.047-3.7a1.673 1.673 0 0 0-1.668-1.68c-7.131 0-12.561-2.07-17.087-6.5a1.648 1.648 0 0 0-2.325 0c-4.526 4.43-9.955 6.5-17.086 6.5a1.672 1.672 0 0 0-1.667 1.68c0 1.18-.024 2.4-.048 3.7-.229 12.06-.542 28.58 19.417 35.55a1.7 1.7 0 0 0 1.092 0c19.964-6.97 19.651-23.49 19.419-35.55zm-19.965 33.74c-17.117-6.27-17.983-18.86-18-33.68.014-.72.028-2.74.037-3.43a30.035 30.035 0 0 0 17.967-7.03 29.861 29.861 0 0 0 17.907 7.03c.009.69.023 2.71.037 3.43.79 14-.826 27.41-17.945 33.68zm5.743-27.94l-8.049 8.11-3.434-3.46a1.671 1.671 0 0 0-2.359 0 1.694 1.694 0 0 0 0 2.38l4.614 4.65a1.663 1.663 0 0 0 2.358 0l9.228-9.3a1.694 1.694 0 0 0 0-2.38 1.669 1.669 0 0 0-2.355 0z" transform="translate(-940 -1421)"/></svg>