<svg xmlns="http://www.w3.org/2000/svg" width="48" height="48" viewBox="0 0 48 48"><defs><style>.cls-1{fill:#7f8890;fill-rule:evenodd}</style></defs><path id="icon-10" class="cls-1" d="M1447.07 1637.02h-14.14a.913.913 0 0 0-.76.92 1.113 1.113 0 0 0 .76 1.09h14.14a1.113 1.113 0 0 0 .76-1.09.913.913 0 0 0-.76-.92zm13.14-18.7a3.824 3.824 0 0 0-.9.11l-4.06-6.82a10.949 10.949 0 0 0 1.38-1.17 11.366 11.366 0 0 0-12.03-18.68 14.9 14.9 0 0 0-19.51 14.18v2.02a4.956 4.956 0 0 0 4.8 4.97h14.01a11.478 11.478 0 0 0 10.07-.51l3.96 6.66a3.8 3.8 0 0 0-1.51 3.03 2.09 2.09 0 0 0 .01.25h-4.85l.65-2.61a3.3 3.3 0 0 0-.5-2.63 2.762 2.762 0 0 0-2.19-1.07h-19.08a2.762 2.762 0 0 0-2.19 1.07 3.3 3.3 0 0 0-.5 2.63l.65 2.28h-4.85a2.26 2.26 0 0 0 .01-.26 3.518 3.518 0 0 0-3.79-3.45 3.788 3.788 0 0 0-.76 7.5v6.65h-1.08a1.759 1.759 0 0 0-1.35.62 1.733 1.733 0 0 0-.39 1.43l.64 3.88a.76.76 0 0 0 1.5-.25l-.65-3.87a.242.242 0 0 1 .06-.21.261.261 0 0 1 .19-.09h3.68a.261.261 0 0 1 .19.09.277.277 0 0 1 .06.21l-.65 3.87a.757.757 0 0 0 .62.87.615.615 0 0 0 .13.01.769.769 0 0 0 .75-.63l.64-3.88a1.753 1.753 0 0 0-1.74-2.05h-1.08v-6.65a3.685 3.685 0 0 0 2.59-1.86h5.66l1.62 6.39a4.782 4.782 0 0 0 4.65 3.63h9.86a4.782 4.782 0 0 0 4.65-3.63l1.62-6.47h5.66a3.79 3.79 0 1 0 3.35-5.56zm-30.32-7.33a3.078 3.078 0 0 1-3.28-3.03v-2.02a13.387 13.387 0 0 1 15.91-13.15 11.706 11.706 0 0 0-1.97 1.57 11.254 11.254 0 0 0-2.82 4.69 3.865 3.865 0 0 0-1.77-.44 3.79 3.79 0 1 0 0 7.58 3.743 3.743 0 0 0 1.77-.44 10.329 10.329 0 0 0 2.82 4.44 9.451 9.451 0 0 0 .89.8h-11.55zm7.48-6.8a2.238 2.238 0 0 1-1.41.49 2.275 2.275 0 1 1 0-4.55 2.238 2.238 0 0 1 1.41.49 11.251 11.251 0 0 0 0 3.57zm4.25 5.18a9.854 9.854 0 1 1 13.94 0 9.862 9.862 0 0 1-13.94 0zm-21.83 15.01a2.275 2.275 0 1 1 2.27-2.27 2.275 2.275 0 0 1-2.27 2.27zm30.97-4.83l-.74 2.81h-8a.76.76 0 0 0 0 1.52h7.62l-1.53 6.1a3.274 3.274 0 0 1-3.18 2.49h-9.86a3.274 3.274 0 0 1-3.18-2.49l-2.65-10.43a1.229 1.229 0 0 1 .23-1.08 1.246 1.246 0 0 1 .99-.49h19.08a1.246 1.246 0 0 1 .99.49 1.229 1.229 0 0 1 .23 1.08zm9.45 4.83a2.291 2.291 0 0 1-2.14-1.5c0-.01-.01-.02-.01-.03a2.289 2.289 0 0 1 1.21-2.81.031.031 0 0 1 .02-.01 2.172 2.172 0 0 1 .92-.2 2.275 2.275 0 0 1 0 4.55zm-26.27 1.92a.76.76 0 0 0-.76.76v.1a.76.76 0 0 0 .76.76.751.751 0 0 0 .75-.76v-.1a.751.751 0 0 0-.75-.76zm11.11 1.62a.76.76 0 0 0 .76-.76v-.1a.76.76 0 1 0-1.52 0v.1a.76.76 0 0 0 .76.76zm9.08-31.05a7.834 7.834 0 1 0 2.29 5.53 7.793 7.793 0 0 0-2.29-5.53zm-1.07 10a6.313 6.313 0 1 1 1.85-4.47 6.3 6.3 0 0 1-1.85 4.47zm-16.09 19.43a.76.76 0 0 0-.76.76v.1a.76.76 0 0 0 1.52 0v-.1a.76.76 0 0 0-.76-.76zm-1.01-6.97h-2.02a1.767 1.767 0 0 0-1.77 1.77v2.02a1.773 1.773 0 0 0 1.77 1.77h2.02a1.78 1.78 0 0 0 1.77-1.77v-2.02a1.773 1.773 0 0 0-1.77-1.77zm.25 3.79a.248.248 0 0 1-.25.25h-2.02a.256.256 0 0 1-.26-.25v-2.02a.265.265 0 0 1 .26-.26h2.02a.256.256 0 0 1 .25.26v2.02z" transform="translate(-1416 -1591.03)"/></svg>