<svg xmlns="http://www.w3.org/2000/svg" width="48" height="47.97" viewBox="0 0 48 47.97"><defs><style>.cls-1{fill:#7f8890;fill-rule:evenodd}</style></defs><path id="icon-5" class="cls-1" d="M1463.78 1422.01a.9.9 0 0 0-.79-.79 24.972 24.972 0 0 0-20.64 7.06l-6.07 6.05-8.76 1.12a.923.923 0 0 0-.52.26l-8.45 8.41a.908.908 0 0 0 .48 1.53l6.38 1.18 1.26 1.25-2.67 1.44a.9.9 0 0 0-.47.66.908.908 0 0 0 .26.78l10.13 10.08a.909.909 0 0 0 .64.27c.04 0 .09-.01.13-.01a.914.914 0 0 0 .67-.47l1.45-2.66 1.25 1.25 1.18 6.36a.934.934 0 0 0 .63.7.842.842 0 0 0 .27.04.9.9 0 0 0 .64-.26l8.45-8.41a.984.984 0 0 0 .26-.53l1.13-8.72 6.07-6.04a24.7 24.7 0 0 0 7.09-20.55zm-38.23 23l-4.49-.83 7-6.97 6.11-.79zm8.79 13.89l-8.4-8.37 2.07-1.12 7.45 7.42zm13.38-2.12l-7 6.97-.83-4.47 8.62-8.58zm7.68-15.5l-16.49 16.42-11.76-11.71 16.49-16.42a23.122 23.122 0 0 1 8.53-5.38 10.861 10.861 0 0 0 8.63 8.59 23.137 23.137 0 0 1-5.4 8.5zm5.95-10.24a9.056 9.056 0 0 1-7.43-7.4 23.221 23.221 0 0 1 8.13-.7 23.053 23.053 0 0 1-.7 8.1zm-18.6 3.34a5.512 5.512 0 0 0 7.81 7.78 5.512 5.512 0 1 0-7.81-7.78zm6.52 6.5a3.68 3.68 0 1 1 0-5.22 3.706 3.706 0 0 1 0 5.22zm-21.45 16.32a.905.905 0 0 0-1.29 0l-7.81 7.77a.924.924 0 0 0 0 1.29.93.93 0 0 0 1.29 0l7.81-7.78a.894.894 0 0 0 0-1.28zm1.2 2.47l-3.52 3.51a.911.911 0 0 0 0 1.28.925.925 0 0 0 .65.27.9.9 0 0 0 .64-.27l3.52-3.5a.905.905 0 0 0 0-1.29.924.924 0 0 0-1.29 0zm-4.75 5.11a.907.907 0 1 0 .52 1.65.906.906 0 0 0-.52-1.65zm.84.56c.03.06-.02-.05 0 0zm-3.41 1.63l-.49.48a.91.91 0 0 0 .65 1.55.9.9 0 0 0 .64-.27l.48-.48a.9.9 0 0 0 .01-1.28.924.924 0 0 0-1.29 0zm-.66-7.98a.924.924 0 0 0-1.29 0l-3.52 3.5a.924.924 0 0 0 0 1.29.93.93 0 0 0 1.29 0l3.52-3.51a.894.894 0 0 0 0-1.28zm1.45-.35a.9.9 0 0 0 .19-1.69.91.91 0 0 0-1.17 1.31c0-.01-.01-.02.01.01s.01.01 0 0a.915.915 0 0 0 .97.37zm2.36-2.16l.48-.48a.905.905 0 0 0-1.28-1.28l-.49.48a.911.911 0 0 0 0 1.28.905.905 0 0 0 1.29 0z" transform="translate(-1415.97 -1421.03)"/></svg>