<svg xmlns="http://www.w3.org/2000/svg" width="47.969" height="47.97" viewBox="0 0 47.969 47.97"><defs><style>.cls-1{fill:#7f8890;fill-rule:evenodd}</style></defs><path id="icon-6" class="cls-1" d="M464.235 1608.25a.86.86 0 0 0 .159.01.8.8 0 0 0 .784-.64c.05-.25.107-.5.167-.75a.8.8 0 0 0-1.553-.38q-.1.4-.183.81a.806.806 0 0 0 .626.95zm1.036-3.86a.877.877 0 0 0 .316.06.8.8 0 0 0 .735-.48c.1-.24.207-.47.317-.7a.8.8 0 1 0-1.443-.69q-.179.375-.344.75a.812.812 0 0 0 .419 1.06zm2.257-3.42a.8.8 0 0 0 .656-.34c.147-.21.3-.42.452-.62a.8.8 0 0 0-1.272-.97c-.168.22-.332.44-.491.67a.806.806 0 0 0 .655 1.26zm2.61-3.02a.831.831 0 0 0 .55-.22c.186-.18.376-.35.568-.52a.8.8 0 0 0-1.051-1.21c-.21.19-.415.37-.617.56a.81.81 0 0 0 .55 1.39zm14.573-5.33l.766.06c.027 0 .053.01.079.01a.8.8 0 0 0 .078-1.6c-.275-.03-.55-.05-.829-.06a.8.8 0 1 0-.094 1.59zm16.923 13.44c.072.24.14.49.2.74a.8.8 0 0 0 .775.6 1.3 1.3 0 0 0 .195-.02.8.8 0 0 0 .582-.97 20.28 20.28 0 0 0-.22-.81.8.8 0 1 0-1.532.46zm-1.109-2.86a.81.81 0 0 0 .721.45.866.866 0 0 0 .348-.08.8.8 0 0 0 .372-1.07c-.12-.25-.249-.5-.379-.74a.8.8 0 1 0-1.411.75c.124.23.238.45.349.69zm1.811 6.62c.021.26.037.51.048.77a.793.793 0 0 0 .8.76h.034a.8.8 0 0 0 .766-.83c-.011-.28-.028-.56-.052-.83a.8.8 0 0 0-1.596.13zm-21.568-17.03a.463.463 0 0 0 .117-.01l.76-.09a.8.8 0 1 0-.164-1.59c-.277.03-.553.06-.827.1a.8.8 0 0 0 .114 1.59zm-3.873.98a.889.889 0 0 0 .276-.05c.24-.09.483-.17.726-.25a.8.8 0 0 0-.485-1.53c-.267.09-.531.18-.792.28a.8.8 0 0 0 .28 1.55zm-3.592 1.74a.805.805 0 0 0 .42-.12q.327-.2.662-.39a.8.8 0 1 0-.786-1.39c-.242.13-.481.28-.717.42a.8.8 0 0 0-.259 1.1.786.786 0 0 0 .677.38zm18.146 32.98c-.232.1-.466.21-.7.3a.807.807 0 0 0-.436 1.05.793.793 0 0 0 .74.49.815.815 0 0 0 .3-.06c.258-.1.515-.21.767-.33a.8.8 0 1 0-.671-1.45zm3.3-1.95c-.207.15-.415.3-.627.44a.8.8 0 0 0 .448 1.46.815.815 0 0 0 .448-.13c.23-.16.457-.32.681-.49a.8.8 0 1 0-.951-1.28zm2.177-30.6c-.211-.18-.424-.36-.643-.53a.8.8 0 1 0-.992 1.26c.2.15.4.32.588.48a.8.8 0 1 0 1.046-1.21zm-7.219-4.02c-.265-.08-.531-.16-.8-.23a.8.8 0 1 0-.416 1.54c.248.07.494.14.737.22a.992.992 0 0 0 .24.03.8.8 0 0 0 .238-1.56zm7.878 32.04c-.171.19-.347.38-.524.56a.8.8 0 0 0 .014 1.13.765.765 0 0 0 .559.23.8.8 0 0 0 .572-.24c.194-.2.384-.4.57-.61a.8.8 0 0 0-1.192-1.07zm4.856-7.08a.8.8 0 0 0-1.014.51q-.123.36-.259.72a.8.8 0 0 0 .46 1.03.717.717 0 0 0 .286.05.8.8 0 0 0 .748-.51q.148-.39.282-.78a.807.807 0 0 0-.504-1.02zm.717-3.93a.8.8 0 0 0-.891.7c-.03.26-.065.51-.106.76a.8.8 0 0 0 .663.92.549.549 0 0 0 .127.01.8.8 0 0 0 .789-.67c.044-.28.083-.55.116-.83a.8.8 0 0 0-.699-.89zm-3.377-13.99c-.169-.22-.343-.43-.521-.65a.8.8 0 0 0-1.228 1.03q.246.3.481.6a.809.809 0 0 0 .635.31.748.748 0 0 0 .486-.17.8.8 0 0 0 .146-1.12zm-11.956 30.76c-.25.06-.5.11-.754.16a.8.8 0 0 0 .146 1.58.752.752 0 0 0 .149-.01c.272-.05.543-.11.812-.17a.8.8 0 0 0 .6-.96.813.813 0 0 0-.954-.6zm13.113-9.14a.806.806 0 0 0-1.1.29c-.129.22-.262.44-.4.65a.807.807 0 0 0 .242 1.11.853.853 0 0 0 .431.13.8.8 0 0 0 .674-.37c.151-.24.3-.47.435-.71a.811.811 0 0 0-.283-1.1zm-7.415-27.02c-.242-.13-.487-.27-.736-.39a.8.8 0 0 0-.719 1.43q.339.165.674.36a.783.783 0 0 0 .389.1.8.8 0 0 0 .391-1.5zM460.8 1623.8a.8.8 0 1 1-.8.8.795.795 0 0 1 .8-.8zm4.8 0a.8.8 0 1 1-.8.8.795.795 0 0 1 .8-.8zm-4.8 4.8a.8.8 0 1 1-.8.8.8.8 0 0 1 .8-.8zm4.8 0a.8.8 0 1 1-.8.8.8.8 0 0 1 .8-.8zm-2.4-2.4a.8.8 0 1 1-.8.8.8.8 0 0 1 .8-.8zm7.2-2.4a.8.8 0 1 1-.8.8.795.795 0 0 1 .8-.8zm-2.4 2.4a.8.8 0 1 1-.8.8.8.8 0 0 1 .8-.8zm2.4 2.4a.8.8 0 1 1-.8.8.8.8 0 0 1 .8-.8zm-9.6 4.8a.8.8 0 1 1-.8.8.8.8 0 0 1 .8-.8zm4.8 0a.8.8 0 1 1-.8.8.8.8 0 0 1 .8-.8zm-2.4-2.4a.8.8 0 1 1-.8.8.8.8 0 0 1 .8-.8zm4.8 0a.8.8 0 1 1-.8.8.8.8 0 0 1 .8-.8zm2.4 2.4a.8.8 0 1 1-.8.8.8.8 0 0 1 .8-.8zm17.6-12a14.374 14.374 0 0 0-23.366-11.25.791.791 0 0 0-1.419.46c-.01.26-.015.52-.015.83a.062.062 0 0 1 0 .02 14.319 14.319 0 0 0-4 9.94c0 .25.014.53.036.83a9.586 9.586 0 1 0 13.532 13.53c.3.02.577.04.832.04a14.349 14.349 0 0 0 9.935-4h.065c.152 0 .306 0 .457-.01a.8.8 0 0 0 .783-.81.78.78 0 0 0-.142-.42 14.331 14.331 0 0 0 3.302-9.16zm-22.4 16a8 8 0 0 1-3.826-15.03.27.27 0 0 0 .077-.04c.2-.1.395-.2.6-.29.039-.01.078-.03.117-.04.192-.08.388-.15.587-.22.051-.01.1-.03.152-.04a5.577 5.577 0 0 1 .575-.15 1.161 1.161 0 0 1 .182-.04 5.6 5.6 0 0 1 .578-.09 1.2 1.2 0 0 1 .189-.02 6.518 6.518 0 0 1 .768-.04 8.009 8.009 0 0 1 8 8c0 .26-.014.51-.039.77-.006.06-.017.12-.024.18-.023.2-.051.39-.089.58-.012.06-.026.12-.039.19-.042.19-.092.38-.148.57l-.046.15c-.064.2-.136.4-.215.59l-.048.12c-.088.2-.185.4-.289.6-.014.02-.025.05-.039.07a8 8 0 0 1-7.023 4.18zm8.351-3.28a9.706 9.706 0 0 0 .886-2.14c.022-.08.041-.16.062-.24.075-.3.136-.6.182-.91.015-.09.03-.18.042-.27a9.549 9.549 0 0 0-9.523-10.76 11.062 11.062 0 0 0-1.159.07c-.093.01-.183.03-.275.04a9.216 9.216 0 0 0-.912.19l-.237.06a9.411 9.411 0 0 0-2.136.89l-.077.03a12.8 12.8 0 1 1 13.109 13.11c.014-.02.023-.05.038-.07z" transform="translate(-456 -1591.03)"/></svg>