<svg xmlns="http://www.w3.org/2000/svg" width="48.03" height="47.97" viewBox="0 0 48.03 47.97"><defs><style>.cls-1{fill:#7f8890;fill-rule:evenodd}</style></defs><path id="icon-4" class="cls-1" d="M1222.46 1425.4l-2.91-2.88a5.325 5.325 0 0 0-7.11-.24l-5.11 4.39a.772.772 0 0 0-.17.19l-4.97 8.22-3.19 1.05a.813.813 0 0 0-.32 1.35l8.7 8.63a.825.825 0 0 0 .58.24.68.68 0 0 0 .19-.03.81.81 0 0 0 .59-.53l1.06-3.17 8.4-5.03a.648.648 0 0 0 .2-.17l4.32-4.96a5.251 5.251 0 0 0-.26-7.06zm-.98 5.99l-4.24 4.87-8.55 5.12a.847.847 0 0 0-.35.44l-.74 2.21-1.96-1.95-2.9-2.88-1.96-1.94 2.22-.74a.8.8 0 0 0 .44-.35l5.06-8.36 5.01-4.31a3.668 3.668 0 0 1 4.88.17l2.91 2.88a3.6 3.6 0 0 1 .18 4.84zm-1.35 22.33a9.046 9.046 0 0 0-9.16-2.18l-17.43-17.29a8.9 8.9 0 0 0-2.21-9.09 9.078 9.078 0 0 0-9.67-2.01.808.808 0 0 0-.28 1.34l5.21 5.17-3.48 3.45-5.21-5.17a.83.83 0 0 0-1.35.28 8.9 8.9 0 0 0 2.02 9.59 9.094 9.094 0 0 0 9.17 2.19l6.52 6.46-8.12 8.05-5.16 2.87a.856.856 0 0 0-.34.34l-2.32 4.61a.807.807 0 0 0 .16.93l2.9 2.88a.785.785 0 0 0 .58.24.768.768 0 0 0 .36-.09l4.64-2.3a.8.8 0 0 0 .35-.33l2.89-5.12 8.12-8.05 6.85 6.8a8.906 8.906 0 0 0 2.21 9.09 9.066 9.066 0 0 0 9.67 2 .822.822 0 0 0 .51-.59.812.812 0 0 0-.23-.74l-5.22-5.18 3.48-3.45 5.22 5.18a.833.833 0 0 0 .75.22.846.846 0 0 0 .6-.5 8.9 8.9 0 0 0-2.03-9.6zm-31.17 3.75a.862.862 0 0 0-.14.18l-2.82 5-3.88 1.93-2.06-2.05 1.94-3.86 5.04-2.79a.623.623 0 0 0 .18-.14l8.2-8.13 1.74 1.73zm32.04 4.01l-4.83-4.78a.821.821 0 0 0-1.16 0l-4.64 4.6a.809.809 0 0 0 0 1.15l4.83 4.78a7.418 7.418 0 0 1-6.66-2 7.287 7.287 0 0 1-1.66-7.86.8.8 0 0 0-.18-.87l-18.17-18.01a.8.8 0 0 0-.58-.24.789.789 0 0 0-.3.05 7.42 7.42 0 0 1-7.92-1.64 7.3 7.3 0 0 1-2.02-6.6l4.82 4.78a.821.821 0 0 0 1.16 0l4.64-4.6a.792.792 0 0 0 0-1.15l-4.82-4.79a7.424 7.424 0 0 1 6.66 2.01 7.275 7.275 0 0 1 1.66 7.85.8.8 0 0 0 .18.87l18.17 18.02a.817.817 0 0 0 .88.18 7.419 7.419 0 0 1 7.91 1.64 7.3 7.3 0 0 1 2.03 6.61z" transform="translate(-1175.94 -1421.03)"/></svg>