<svg xmlns="http://www.w3.org/2000/svg" width="35.062" height="48" viewBox="0 0 35.062 48"><defs><style>.cls-1{fill:#7f8890;fill-rule:evenodd}</style></defs><path id="icon-1" class="cls-1" d="M495.712 1441.92H495v-6.26a14.533 14.533 0 0 0-14.5-14.66 14.693 14.693 0 0 0-14.7 14.66c0 .75.223 1.35.97 1.35a1.2 1.2 0 0 0 1.158-1.35c0-6.6 5.943-12.66 12.569-12.66s12.444 6.05 12.444 12.66v6.26H465.1c-1.435 0-2.164 1.16-2.164 2.59v16.71c0 4.29 3.06 7.78 7.355 7.78h20.416c4.295 0 7.292-3.49 7.292-7.78v-16.71a2.347 2.347 0 0 0-2.287-2.59zm.285 19.3c0 2.81-2.282 5.72-5.1 5.72h-20.783c-2.81 0-5.1-2.9-5.1-5.72v-17.24H496v17.24zm-15.492-1.1a4.223 4.223 0 0 0 4.594-4.46 4.413 4.413 0 0 0-4.594-4.71 4.462 4.462 0 0 0-4.657 4.71c0 2.76 1.877 4.46 4.657 4.46zm0-6.81a2.34 2.34 0 1 1-2.342 2.35 2.341 2.341 0 0 1 2.342-2.35z" transform="translate(-462.938 -1421)"/></svg>