<svg xmlns="http://www.w3.org/2000/svg" width="48" height="45.94" viewBox="0 0 48 45.94"><defs><style>.cls-1{fill:#7f8890;fill-rule:evenodd}</style></defs><path id="icon-2" class="cls-1" d="M740.4 1422.09h-40.8a3.572 3.572 0 0 0-3.6 3.57v29.72a3.572 3.572 0 0 0 3.6 3.57h14.265a3.241 3.241 0 0 1-1.625 3.11l-1.44 1.04a.922.922 0 0 0-.342.34 1.922 1.922 0 0 0-1.658 1.9 2.622 2.622 0 0 0 2.4 2.69h17.6a2.622 2.622 0 0 0 2.4-2.69 1.953 1.953 0 0 0-1.818-1.94.871.871 0 0 0-.262-.3l-1.44-1.04a3.208 3.208 0 0 1-1.595-3.11H740.4a3.572 3.572 0 0 0 3.6-3.57v-29.72a3.572 3.572 0 0 0-3.6-3.57zm-42.425 3.82a1.97 1.97 0 0 1 2-1.98h40.05a1.97 1.97 0 0 1 2 1.98v24.07h-44.05v-24.07zm30.825 40.1h-17.6a.668.668 0 0 1-.8-.67c0-.48.32-.29.8-.29h17.6c.48 0 .8-.19.8.29a.668.668 0 0 1-.8.67zm-2.16-2.99h-13.36c1.52-1.11 2.32-2.25 2.24-4.07h8.96c-.16 1.82.72 2.96 2.16 4.07zm15.385-8.01a1.97 1.97 0 0 1-2 1.98H699.6c-1.12 0-1.625-.87-1.625-1.98v-3.07h44.05v3.07zm-32.105-17.85l5.84-5.79a.762.762 0 0 0 0-1.11.773.773 0 0 0-1.12 0l-6.4 6.35a.713.713 0 0 0-.16.87 1.1 1.1 0 0 0 .24.32l6.32 6.26a.773.773 0 0 0 1.12 0 .762.762 0 0 0 0-1.11zm21.76-.63l-6.32-6.27a.773.773 0 0 0-1.12 0 .762.762 0 0 0 0 1.11l5.84 5.79-5.84 5.79a.762.762 0 0 0 0 1.11.773.773 0 0 0 1.12 0l6.4-6.34a.73.73 0 0 0 .16-.88 1.19 1.19 0 0 0-.24-.31zm-9.84-6.43a.759.759 0 0 0-.96.56l-3.2 12.69a.753.753 0 0 0 .56.95h.16a.8.8 0 0 0 .8-.56l3.2-12.69a.753.753 0 0 0-.56-.95z" transform="translate(-696 -1422.09)"/></svg>